<svg xmlns="http://www.w3.org/2000/svg" viewBox="0 0 800 500">
  <defs>
    <linearGradient id="bg-dev" x1="0%" y1="0%" x2="100%" y2="100%">
      <stop offset="0%" stop-color="#0c0a09"/>
      <stop offset="100%" stop-color="#1c1917"/>
    </linearGradient>
  </defs>

  <!-- Background -->
  <rect width="800" height="500" fill="url(#bg-dev)"/>

  <!-- Browser Chrome -->
  <rect x="0" y="0" width="800" height="32" fill="#0a0908"/>
  <circle cx="20" cy="16" r="6" fill="#ff5f57"/>
  <circle cx="40" cy="16" r="6" fill="#febc2e"/>
  <circle cx="60" cy="16" r="6" fill="#28c840"/>
  <rect x="280" y="8" width="240" height="16" rx="4" fill="#1c1917"/>
  <text x="400" y="20" text-anchor="middle" font-family="system-ui" font-size="9" fill="#57534e">dev-learning-notes.vercel.app</text>

  <!-- Sidebar -->
  <rect x="0" y="32" width="200" height="468" fill="#0f0e0d"/>
  <text x="24" y="70" font-family="monospace" font-size="14" fill="#a8a29e">&gt;_</text>
  <text x="50" y="70" font-family="system-ui" font-size="13" fill="#fafaf9" font-weight="600">dev-notes</text>
  <rect x="130" y="56" width="30" height="16" rx="4" fill="#84cc16" opacity="0.2"/>
  <text x="145" y="68" text-anchor="middle" font-family="system-ui" font-size="8" fill="#84cc16" font-weight="600">PRO</text>
  <text x="24" y="88" font-family="system-ui" font-size="10" fill="#57534e">Korean enterprise stack</text>
  <text x="24" y="460" font-family="monospace" font-size="9" fill="#57534e">// keep shipping</text>

  <!-- Main Content -->
  <text x="230" y="75" font-family="system-ui" font-size="10" fill="#57534e">Knowledge Base 2026</text>
  <text x="230" y="110" font-family="system-ui" font-size="24" fill="#fafaf9" font-weight="700">Master the Korean</text>
  <text x="230" y="140" font-family="system-ui" font-size="24" fill="#fafaf9" font-weight="700">Enterprise Stack.</text>
  <text x="230" y="170" font-family="system-ui" font-size="11" fill="#78716c">A curated collection of practical notes for the standard Korean IT ecosystem.</text>

  <!-- Tech Pills -->
  <rect x="230" y="190" width="95" height="24" rx="6" fill="#1c1917" stroke="#292524"/>
  <text x="240" y="206" font-family="system-ui" font-size="10" fill="#a8a29e">🌱 Spring Boot</text>
  <rect x="335" y="190" width="90" height="24" rx="6" fill="#1c1917" stroke="#292524"/>
  <text x="345" y="206" font-family="system-ui" font-size="10" fill="#a8a29e">🧮 MyBatis</text>
  <rect x="435" y="190" width="95" height="24" rx="6" fill="#1c1917" stroke="#292524"/>
  <text x="445" y="206" font-family="system-ui" font-size="10" fill="#a8a29e">🗃️ PostgreSQL</text>

  <!-- Module Cards -->
  <text x="230" y="250" font-family="system-ui" font-size="12" fill="#fafaf9" font-weight="500">Available Topics</text>
  <text x="660" y="250" font-family="system-ui" font-size="10" fill="#57534e">10 MODULES LOADED</text>

  <rect x="230" y="265" width="175" height="90" rx="8" fill="#1c1917" stroke="#292524"/>
  <rect x="244" y="280" width="24" height="24" rx="6" fill="#292524"/>
  <text x="256" y="297" text-anchor="middle" font-family="system-ui" font-size="12" fill="#84cc16">K</text>
  <text x="244" y="318" font-family="system-ui" font-size="13" fill="#fafaf9" font-weight="500">Spring Boot</text>
  <text x="244" y="335" font-family="system-ui" font-size="9" fill="#57534e">IoC/DI, MVC, REST API</text>

  <rect x="415" y="265" width="175" height="90" rx="8" fill="#1c1917" stroke="#292524"/>
  <rect x="429" y="280" width="24" height="24" rx="6" fill="#292524"/>
  <text x="441" y="297" text-anchor="middle" font-family="system-ui" font-size="12" fill="#eab308">M</text>
  <text x="429" y="318" font-family="system-ui" font-size="13" fill="#fafaf9" font-weight="500">MyBatis</text>
  <text x="429" y="335" font-family="system-ui" font-size="9" fill="#57534e">Dynamic SQL, XML Mapper</text>

  <rect x="600" y="265" width="175" height="90" rx="8" fill="#1c1917" stroke="#292524"/>
  <rect x="614" y="280" width="24" height="24" rx="6" fill="#292524"/>
  <text x="626" y="297" text-anchor="middle" font-family="system-ui" font-size="12" fill="#3b82f6">J</text>
  <text x="614" y="318" font-family="system-ui" font-size="13" fill="#fafaf9" font-weight="500">JSP &amp; JSTL</text>
  <text x="614" y="335" font-family="system-ui" font-size="9" fill="#57534e">Templates, Tags</text>

  <rect x="230" y="365" width="175" height="90" rx="8" fill="#1c1917" stroke="#292524"/>
  <rect x="244" y="380" width="24" height="24" rx="6" fill="#292524"/>
  <text x="256" y="397" text-anchor="middle" font-family="system-ui" font-size="12" fill="#a855f7">$</text>
  <text x="244" y="418" font-family="system-ui" font-size="13" fill="#fafaf9" font-weight="500">jQuery &amp; AJAX</text>
  <text x="244" y="435" font-family="system-ui" font-size="9" fill="#57534e">DOM, AJAX patterns</text>

  <rect x="415" y="365" width="175" height="90" rx="8" fill="#1c1917" stroke="#292524"/>
  <rect x="429" y="380" width="24" height="24" rx="6" fill="#292524"/>
  <text x="441" y="397" text-anchor="middle" font-family="system-ui" font-size="12" fill="#ef4444">☕</text>
  <text x="429" y="418" font-family="system-ui" font-size="13" fill="#fafaf9" font-weight="500">Java Core</text>
  <text x="429" y="435" font-family="system-ui" font-size="9" fill="#57534e">OOP, Streams, Lambda</text>

  <rect x="600" y="365" width="175" height="90" rx="8" fill="#1c1917" stroke="#292524"/>
  <rect x="614" y="380" width="24" height="24" rx="6" fill="#292524"/>
  <text x="626" y="397" text-anchor="middle" font-family="system-ui" font-size="12" fill="#22d3ee">⌨</text>
  <text x="614" y="418" font-family="system-ui" font-size="13" fill="#fafaf9" font-weight="500">SQL Fundamentals</text>
  <text x="614" y="435" font-family="system-ui" font-size="9" fill="#57534e">SELECT, JOIN, Aggregates</text>
</svg>
