<svg width="400" height="200" viewBox="0 0 400 200" fill="none" xmlns="http://www.w3.org/2000/svg">
  <rect width="400" height="200" fill="#f8fafc"/>
  <rect x="20" y="20" width="360" height="160" rx="8" fill="#e2e8f0" stroke="#cbd5e1" stroke-width="2"/>
  
  <!-- Header -->
  <rect x="40" y="40" width="320" height="20" rx="4" fill="#3b82f6"/>
  <text x="200" y="53" text-anchor="middle" fill="white" font-family="Arial, sans-serif" font-size="12" font-weight="bold">Customer Management System</text>
  
  <!-- Search bar -->
  <rect x="40" y="80" width="200" height="16" rx="8" fill="white" stroke="#94a3b8"/>
  <circle cx="60" cy="88" r="4" fill="#94a3b8"/>
  <line x1="64" y1="92" x2="68" y2="96" stroke="#94a3b8" stroke-width="1"/>
  
  <!-- Customer list -->
  <rect x="40" y="120" width="320" height="40" rx="4" fill="white" stroke="#e2e8f0"/>
  <circle cx="60" cy="140" r="8" fill="#10b981"/>
  <rect x="80" y="130" width="120" height="8" rx="4" fill="#64748b"/>
  <rect x="80" y="142" width="80" height="6" rx="3" fill="#94a3b8"/>
  <rect x="280" y="135" width="60" height="10" rx="5" fill="#3b82f6"/>
  
  <!-- Stats -->
  <rect x="40" y="180" width="100" height="20" rx="4" fill="#f59e0b"/>
  <text x="90" y="193" text-anchor="middle" fill="white" font-family="Arial, sans-serif" font-size="10">1,234</text>
  
  <rect x="150" y="180" width="100" height="20" rx="4" fill="#10b981"/>
  <text x="200" y="193" text-anchor="middle" fill="white" font-family="Arial, sans-serif" font-size="10">Active</text>
  
  <rect x="260" y="180" width="100" height="20" rx="4" fill="#ef4444"/>
  <text x="310" y="193" text-anchor="middle" fill="white" font-family="Arial, sans-serif" font-size="10">Pending</text>
</svg>
