<svg xmlns="http://www.w3.org/2000/svg" viewBox="0 0 400 225">
  <defs>
    <linearGradient id="devlab_bg" x1="0" y1="0" x2="400" y2="225" gradientUnits="userSpaceOnUse">
      <stop offset="0%" stop-color="#1e1b4b"/>
      <stop offset="55%" stop-color="#312e81"/>
      <stop offset="100%" stop-color="#3730a3"/>
    </linearGradient>
    <radialGradient id="devlab_glow" cx="0" cy="0" r="1" gradientUnits="userSpaceOnUse" gradientTransform="translate(120 55) scale(240)">
      <stop offset="0%" stop-color="#ffffff" stop-opacity="0.14"/>
      <stop offset="100%" stop-color="#ffffff" stop-opacity="0"/>
    </radialGradient>
  </defs>

  <rect width="400" height="225" fill="url(#devlab_bg)"/>
  <rect width="400" height="225" fill="url(#devlab_glow)"/>

  <!-- Flask mark -->
  <g transform="translate(58,50)">
    <path d="M28 6 L28 34 L10 78 a8 8 0 0 0 7 12 L57 90 a8 8 0 0 0 7 -12 L46 34 L46 6 Z" fill="#f8fafc" opacity="0.95"/>
    <path d="M20 6 L54 6" stroke="#a5b4fc" stroke-width="6" stroke-linecap="round"/>
    <path d="M16 70 L58 70 L60 76 a8 8 0 0 1 -7 6 L23 82 a8 8 0 0 1 -7 -6 Z" fill="#818cf8"/>
    <circle cx="30" cy="58" r="3" fill="#4338ca"/>
    <circle cx="42" cy="64" r="4" fill="#4338ca"/>
    <circle cx="36" cy="50" r="2.5" fill="#4338ca"/>
  </g>

  <text fill="#ffffff" x="185" y="95" font-family="system-ui" font-size="32" font-weight="bold">Dev Lab</text>
  <text fill="#c7d2fe" x="185" y="122" font-family="system-ui" font-size="16">Personal practice &amp; tooling monorepo</text>
  <text fill="#a5b4fc" x="185" y="145" font-family="system-ui" font-size="10">Java · Spring Boot · MyBatis · PostgreSQL</text>
</svg>
