<svg width="400" height="200" viewBox="0 0 400 200" fill="none" xmlns="http://www.w3.org/2000/svg">
  <rect width="400" height="200" fill="#f8fafc"/>
  <rect x="20" y="20" width="360" height="160" rx="8" fill="#e2e8f0" stroke="#cbd5e1" stroke-width="2"/>
  
  <!-- Header -->
  <rect x="40" y="40" width="320" height="20" rx="4" fill="linear-gradient(90deg, #f59e0b 0%, #8b5cf6 100%)"/>
  <text x="200" y="53" text-anchor="middle" fill="white" font-family="Arial, sans-serif" font-size="12" font-weight="bold">EasyCart</text>
  
  <!-- Mobile Phone Frame -->
  <rect x="60" y="80" width="120" height="200" rx="12" fill="#1f2937" stroke="#374151" stroke-width="2"/>
  <rect x="65" y="85" width="110" height="190" rx="8" fill="white"/>
  
  <!-- App Header -->
  <rect x="70" y="90" width="100" height="15" rx="4" fill="#f59e0b"/>
  <text x="120" y="101" text-anchor="middle" fill="white" font-family="Arial, sans-serif" font-size="8" font-weight="bold">easycart</text>
  
  <!-- Tabs -->
  <rect x="70" y="110" width="30" height="8" rx="4" fill="#8b5cf6"/>
  <text x="85" y="116" text-anchor="middle" fill="white" font-family="Arial, sans-serif" font-size="6">For you</text>
  <rect x="105" y="110" width="25" height="8" rx="4" fill="#e5e7eb"/>
  <text x="117" y="116" text-anchor="middle" fill="#6b7280" font-family="Arial, sans-serif" font-size="6">Explore</text>
  <rect x="135" y="110" width="25" height="8" rx="4" fill="#e5e7eb"/>
  <text x="147" y="116" text-anchor="middle" fill="#6b7280" font-family="Arial, sans-serif" font-size="6">Saved</text>
  
  <!-- Product Grid -->
  <rect x="70" y="125" width="45" height="60" rx="4" fill="white" stroke="#e5e7eb"/>
  <rect x="75" y="130" width="35" height="25" rx="4" fill="#f3f4f6"/>
  <rect x="75" y="160" width="35" height="4" rx="2" fill="#374151"/>
  <rect x="75" y="166" width="25" height="3" rx="2" fill="#6b7280"/>
  <rect x="75" y="171" width="20" height="6" rx="3" fill="#f59e0b"/>
  <circle cx="105" cy="135" r="3" fill="#8b5cf6"/>
  
  <rect x="125" y="125" width="45" height="60" rx="4" fill="white" stroke="#e5e7eb"/>
  <rect x="130" y="130" width="35" height="25" rx="4" fill="#f3f4f6"/>
  <rect x="130" y="160" width="35" height="4" rx="2" fill="#374151"/>
  <rect x="130" y="166" width="25" height="3" rx="2" fill="#6b7280"/>
  <rect x="130" y="171" width="20" height="6" rx="3" fill="#10b981"/>
  <circle cx="160" cy="135" r="3" fill="#8b5cf6"/>
  
  <rect x="70" y="195" width="45" height="60" rx="4" fill="white" stroke="#e5e7eb"/>
  <rect x="75" y="200" width="35" height="25" rx="4" fill="#f3f4f6"/>
  <rect x="75" y="230" width="35" height="4" rx="2" fill="#374151"/>
  <rect x="75" y="236" width="25" height="3" rx="2" fill="#6b7280"/>
  <rect x="75" y="241" width="20" height="6" rx="3" fill="#ef4444"/>
  
  <rect x="125" y="195" width="45" height="60" rx="4" fill="white" stroke="#e5e7eb"/>
  <rect x="130" y="200" width="35" height="25" rx="4" fill="#f3f4f6"/>
  <rect x="130" y="230" width="35" height="4" rx="2" fill="#374151"/>
  <rect x="130" y="236" width="25" height="3" rx="2" fill="#6b7280"/>
  <rect x="130" y="241" width="20" height="6" rx="3" fill="#3b82f6"/>
  
  <!-- Bottom Navigation -->
  <rect x="70" y="265" width="100" height="8" rx="4" fill="#f3f4f6"/>
  <circle cx="85" cy="269" r="2" fill="#8b5cf6"/>
  <circle cx="100" cy="269" r="2" fill="#d1d5db"/>
  <circle cx="115" cy="269" r="2" fill="#d1d5db"/>
  <circle cx="130" cy="269" r="2" fill="#d1d5db"/>
  <circle cx="145" cy="269" r="2" fill="#d1d5db"/>
  
  <!-- Login Screen -->
  <rect x="200" y="80" width="160" height="120" rx="8" fill="white" stroke="#e5e7eb"/>
  
  <!-- Logo -->
  <text x="280" y="100" text-anchor="middle" fill="#f59e0b" font-family="Arial, sans-serif" font-size="14" font-weight="bold">easy</text>
  <text x="280" y="115" text-anchor="middle" fill="#8b5cf6" font-family="Arial, sans-serif" font-size="14" font-weight="bold">cart</text>
  
  <!-- Login Buttons -->
  <rect x="210" y="130" width="140" height="12" rx="6" fill="#8b5cf6"/>
  <text x="280" y="138" text-anchor="middle" fill="white" font-family="Arial, sans-serif" font-size="8">Log in with Phone Number</text>
  
  <rect x="210" y="150" width="140" height="12" rx="6" fill="white" stroke="#d1d5db"/>
  <text x="280" y="158" text-anchor="middle" fill="#374151" font-family="Arial, sans-serif" font-size="8">Continue with Google</text>
  
  <text x="280" y="175" text-anchor="middle" fill="#8b5cf6" font-family="Arial, sans-serif" font-size="8">Create a free account</text>
  
  <!-- Product Icons -->
  <circle cx="320" cy="190" r="4" fill="#10b981"/>
  <circle cx="330" cy="190" r="4" fill="#f59e0b"/>
  <circle cx="340" cy="190" r="4" fill="#ef4444"/>
  <circle cx="350" cy="190" r="4" fill="#3b82f6"/>
  <circle cx="360" cy="190" r="4" fill="#8b5cf6"/>
  
  <!-- Features -->
  <rect x="40" y="180" width="320" height="20" rx="4" fill="white" stroke="#e5e7eb"/>
  
  <!-- Mobile -->
  <rect x="50" y="185" width="25" height="10" rx="5" fill="#dbeafe"/>
  <text x="62" y="192" text-anchor="middle" fill="#1e40af" font-family="Arial, sans-serif" font-size="8">Mobile</text>
  
  <!-- Grid/List -->
  <rect x="85" y="185" width="25" height="10" rx="5" fill="#fef3c7"/>
  <text x="97" y="192" text-anchor="middle" fill="#92400e" font-family="Arial, sans-serif" font-size="8">Grid</text>
  
  <!-- Save -->
  <rect x="120" y="185" width="25" height="10" rx="5" fill="#dcfce7"/>
  <text x="132" y="192" text-anchor="middle" fill="#166534" font-family="Arial, sans-serif" font-size="8">Save</text>
  
  <!-- Notifications -->
  <rect x="155" y="185" width="35" height="10" rx="5" fill="#fef2f2"/>
  <text x="172" y="192" text-anchor="middle" fill="#dc2626" font-family="Arial, sans-serif" font-size="8">Notify</text>
  
  <!-- Auth -->
  <rect x="200" y="185" width="25" height="10" rx="5" fill="#f3e8ff"/>
  <text x="212" y="192" text-anchor="middle" fill="#7c3aed" font-family="Arial, sans-serif" font-size="8">Auth</text>
  
  <!-- Payment -->
  <rect x="235" y="185" width="30" height="10" rx="5" fill="#ecfdf5"/>
  <text x="250" y="192" text-anchor="middle" fill="#059669" font-family="Arial, sans-serif" font-size="8">Pay</text>
  
  <!-- Real-time -->
  <rect x="275" y="185" width="35" height="10" rx="5" fill="#eff6ff"/>
  <text x="292" y="192" text-anchor="middle" fill="#2563eb" font-family="Arial, sans-serif" font-size="8">Real-time</text>
  
  <!-- Personalization -->
  <rect x="320" y="185" width="40" height="10" rx="5" fill="#fef7ed"/>
  <text x="340" y="192" text-anchor="middle" fill="#ea580c" font-family="Arial, sans-serif" font-size="8">AI Rec</text>
</svg>
