<svg width="400" height="200" viewBox="0 0 400 200" fill="none" xmlns="http://www.w3.org/2000/svg">
  <rect width="400" height="200" fill="#f8fafc"/>
  <rect x="20" y="20" width="360" height="160" rx="8" fill="#e2e8f0" stroke="#cbd5e1" stroke-width="2"/>
  
  <!-- Header -->
  <rect x="40" y="40" width="320" height="20" rx="4" fill="#06b6d4"/>
  <text x="200" y="53" text-anchor="middle" fill="white" font-family="Arial, sans-serif" font-size="12" font-weight="bold">Task Management Portal</text>
  
  <!-- Task columns -->
  <rect x="40" y="80" width="100" height="100" rx="4" fill="white" stroke="#e2e8f0"/>
  <text x="90" y="95" text-anchor="middle" fill="#64748b" font-family="Arial, sans-serif" font-size="10" font-weight="bold">To Do</text>
  
  <rect x="50" y="105" width="80" height="20" rx="4" fill="#fef3c7" stroke="#f59e0b"/>
  <rect x="55" y="110" width="70" height="6" rx="3" fill="#92400e"/>
  <rect x="55" y="118" width="50" height="4" rx="2" fill="#92400e"/>
  
  <rect x="50" y="130" width="80" height="20" rx="4" fill="#fef3c7" stroke="#f59e0b"/>
  <rect x="55" y="135" width="70" height="6" rx="3" fill="#92400e"/>
  <rect x="55" y="143" width="40" height="4" rx="2" fill="#92400e"/>
  
  <rect x="50" y="155" width="80" height="20" rx="4" fill="#fef3c7" stroke="#f59e0b"/>
  <rect x="55" y="160" width="70" height="6" rx="3" fill="#92400e"/>
  <rect x="55" y="168" width="60" height="4" rx="2" fill="#92400e"/>
  
  <!-- In Progress -->
  <rect x="150" y="80" width="100" height="100" rx="4" fill="white" stroke="#e2e8f0"/>
  <text x="200" y="95" text-anchor="middle" fill="#64748b" font-family="Arial, sans-serif" font-size="10" font-weight="bold">In Progress</text>
  
  <rect x="160" y="105" width="80" height="20" rx="4" fill="#dbeafe" stroke="#3b82f6"/>
  <rect x="165" y="110" width="70" height="6" rx="3" fill="#1e40af"/>
  <rect x="165" y="118" width="45" height="4" rx="2" fill="#1e40af"/>
  
  <rect x="160" y="130" width="80" height="20" rx="4" fill="#dbeafe" stroke="#3b82f6"/>
  <rect x="165" y="135" width="70" height="6" rx="3" fill="#1e40af"/>
  <rect x="165" y="143" width="55" height="4" rx="2" fill="#1e40af"/>
  
  <!-- Done -->
  <rect x="260" y="80" width="100" height="100" rx="4" fill="white" stroke="#e2e8f0"/>
  <text x="310" y="95" text-anchor="middle" fill="#64748b" font-family="Arial, sans-serif" font-size="10" font-weight="bold">Done</text>
  
  <rect x="270" y="105" width="80" height="20" rx="4" fill="#dcfce7" stroke="#10b981"/>
  <rect x="275" y="110" width="70" height="6" rx="3" fill="#166534"/>
  <rect x="275" y="118" width="65" height="4" rx="2" fill="#166534"/>
  <circle cx="340" cy="115" r="3" fill="#10b981"/>
  
  <rect x="270" y="130" width="80" height="20" rx="4" fill="#dcfce7" stroke="#10b981"/>
  <rect x="275" y="135" width="70" height="6" rx="3" fill="#166534"/>
  <rect x="275" y="143" width="60" height="4" rx="2" fill="#166534"/>
  <circle cx="340" cy="140" r="3" fill="#10b981"/>
  
  <rect x="270" y="155" width="80" height="20" rx="4" fill="#dcfce7" stroke="#10b981"/>
  <rect x="275" y="160" width="70" height="6" rx="3" fill="#166534"/>
  <rect x="275" y="168" width="70" height="4" rx="2" fill="#166534"/>
  <circle cx="340" cy="165" r="3" fill="#10b981"/>
  
  <!-- Progress indicator -->
  <rect x="40" y="190" width="320" height="8" rx="4" fill="#e2e8f0"/>
  <rect x="40" y="190" width="200" height="8" rx="4" fill="#10b981"/>
  <text x="200" y="205" text-anchor="middle" fill="#64748b" font-family="Arial, sans-serif" font-size="8">65% Complete</text>
</svg>
