<svg width="400" height="200" viewBox="0 0 400 200" fill="none" xmlns="http://www.w3.org/2000/svg">
  <rect width="400" height="200" fill="#f8fafc"/>
  <rect x="20" y="20" width="360" height="160" rx="8" fill="#e2e8f0" stroke="#cbd5e1" stroke-width="2"/>
  
  <!-- Header -->
  <rect x="40" y="40" width="320" height="20" rx="4" fill="linear-gradient(90deg, #3b82f6 0%, #10b981 100%)"/>
  <text x="200" y="53" text-anchor="middle" fill="white" font-family="Arial, sans-serif" font-size="12" font-weight="bold">Warehouse Master</text>
  
  <!-- Warehouse Building -->
  <rect x="60" y="80" width="80" height="60" rx="4" fill="#f59e0b"/>
  <polygon points="100,60 120,60 120,80 100,80" fill="#f59e0b"/>
  <rect x="70" y="85" width="20" height="25" fill="#1f2937"/>
  <rect x="110" y="85" width="20" height="25" fill="#1f2937"/>
  <rect x="75" y="95" width="10" height="15" fill="#fbbf24"/>
  <rect x="115" y="95" width="10" height="15" fill="#fbbf24"/>
  
  <!-- Shopping Cart with Products -->
  <rect x="160" y="100" width="30" height="20" rx="4" fill="#3b82f6"/>
  <circle cx="175" cy="110" r="3" fill="white"/>
  <circle cx="175" cy="115" r="3" fill="white"/>
  <rect x="185" y="105" width="15" height="10" rx="2" fill="#3b82f6"/>
  
  <!-- Product Boxes -->
  <rect x="200" y="95" width="25" height="20" rx="2" fill="#10b981"/>
  <rect x="210" y="100" width="15" height="10" rx="1" fill="#34d399"/>
  <rect x="215" y="105" width="5" height="5" fill="#10b981"/>
  
  <rect x="230" y="95" width="25" height="20" rx="2" fill="#ef4444"/>
  <rect x="240" y="100" width="15" height="10" rx="1" fill="#f87171"/>
  <rect x="245" y="105" width="5" height="5" fill="#ef4444"/>
  
  <rect x="260" y="95" width="25" height="20" rx="2" fill="#8b5cf6"/>
  <rect x="270" y="100" width="15" height="10" rx="1" fill="#a78bfa"/>
  <rect x="275" y="105" width="5" height="5" fill="#8b5cf6"/>
  
  <!-- Dashboard -->
  <rect x="60" y="160" width="280" height="40" rx="4" fill="white" stroke="#e5e7eb"/>
  
  <!-- Order Activity -->
  <rect x="70" y="170" width="60" height="20" rx="4" fill="#eff6ff"/>
  <text x="100" y="183" text-anchor="middle" fill="#1e40af" font-family="Arial, sans-serif" font-size="8" font-weight="bold">New: 17</text>
  
  <rect x="140" y="170" width="60" height="20" rx="4" fill="#fef3c7"/>
  <text x="170" y="183" text-anchor="middle" fill="#92400e" font-family="Arial, sans-serif" font-size="8" font-weight="bold">Preparing: 5</text>
  
  <rect x="210" y="170" width="60" height="20" rx="4" fill="#dcfce7"/>
  <text x="240" y="183" text-anchor="middle" fill="#166534" font-family="Arial, sans-serif" font-size="8" font-weight="bold">Dispatch: 10</text>
  
  <rect x="280" y="170" width="60" height="20" rx="4" fill="#fef2f2"/>
  <text x="310" y="183" text-anchor="middle" fill="#dc2626" font-family="Arial, sans-serif" font-size="8" font-weight="bold">Completed: 70</text>
  
  <!-- Features Section -->
  <rect x="40" y="180" width="320" height="20" rx="4" fill="white" stroke="#e5e7eb"/>
  
  <!-- Track Order -->
  <rect x="50" y="185" width="30" height="10" rx="5" fill="#dbeafe"/>
  <text x="65" y="192" text-anchor="middle" fill="#1e40af" font-family="Arial, sans-serif" font-size="8">Track</text>
  
  <!-- Export Report -->
  <rect x="90" y="185" width="35" height="10" rx="5" fill="#fef3c7"/>
  <text x="107" y="192" text-anchor="middle" fill="#92400e" font-family="Arial, sans-serif" font-size="8">Export</text>
  
  <!-- Product Alert -->
  <rect x="135" y="185" width="35" height="10" rx="5" fill="#dcfce7"/>
  <text x="152" y="192" text-anchor="middle" fill="#166534" font-family="Arial, sans-serif" font-size="8">Alert</text>
  
  <!-- B2B -->
  <rect x="180" y="185" width="25" height="10" rx="5" fill="#f3e8ff"/>
  <text x="192" y="192" text-anchor="middle" fill="#7c3aed" font-family="Arial, sans-serif" font-size="8">B2B</text>
  
  <!-- Large Volume -->
  <rect x="215" y="185" width="35" height="10" rx="5" fill="#ecfdf5"/>
  <text x="232" y="192" text-anchor="middle" fill="#059669" font-family="Arial, sans-serif" font-size="8">Volume</text>
  
  <!-- Distributors -->
  <rect x="260" y="185" width="35" height="10" rx="5" fill="#eff6ff"/>
  <text x="277" y="192" text-anchor="middle" fill="#2563eb" font-family="Arial, sans-serif" font-size="8">Dist</text>
  
  <!-- Retailers -->
  <rect x="305" y="185" width="35" height="10" rx="5" fill="#fef7ed"/>
  <text x="322" y="192" text-anchor="middle" fill="#ea580c" font-family="Arial, sans-serif" font-size="8">Retail</text>
  
  <!-- Price Tag -->
  <rect x="340" y="185" width="30" height="10" rx="5" fill="#fef2f2"/>
  <text x="355" y="192" text-anchor="middle" fill="#dc2626" font-family="Arial, sans-serif" font-size="8">$1.99</text>
</svg>
